<?xml version="1.0" standalone="no"?>
<!DOCTYPE svg PUBLIC "-//W3C//DTD SVG 20010904//EN"
 "http://www.w3.org/TR/2001/REC-SVG-20010904/DTD/svg10.dtd">
<svg version="1.0" xmlns="http://www.w3.org/2000/svg"
 width="350.000000pt" height="350.000000pt" viewBox="0 0 350.000000 350.000000"
 preserveAspectRatio="xMidYMid meet">
<metadata>
Created by potrace 1.14, written by Peter Selinger 2001-2017
</metadata>
<g transform="translate(0.000000,350.000000) scale(0.100000,-0.100000)"
fill="#000000" stroke="none">
<path d="M1932 3485 c-52 -16 -82 -35 -147 -94 -27 -25 -37 -31 -21 -13 17 17
25 32 19 32 -26 0 -148 -165 -193 -263 -48 -102 -61 -172 -58 -301 2 -68 -1
-119 -7 -124 -6 -6 -40 5 -95 32 -47 23 -119 57 -160 76 -41 18 -129 59 -195
90 -66 31 -148 69 -181 84 -35 16 -67 38 -74 51 -7 12 -23 29 -36 36 -29 15
-18 33 32 49 57 19 40 54 -32 65 -31 5 -45 2 -67 -15 -15 -12 -27 -29 -27 -38
0 -32 -15 -45 -38 -33 -14 7 -24 28 -32 65 -15 73 -29 83 -63 46 -34 -36 -61
-40 -109 -18 -30 15 -42 16 -63 6 -29 -13 -31 -21 -10 -38 9 -8 13 -21 9 -32
-4 -15 7 -24 69 -52 59 -27 75 -39 79 -60 5 -22 -5 -31 -86 -85 -50 -33 -103
-71 -117 -83 -134 -118 -122 -373 23 -503 65 -58 128 -79 227 -73 60 3 90 11
143 38 101 49 188 151 188 220 0 11 -22 66 -50 123 -39 81 -98 264 -87 273 2
2 17 -5 245 -113 73 -35 135 -63 137 -63 1 0 58 -26 126 -58 68 -33 143 -67
167 -77 29 -13 42 -25 42 -39 0 -11 9 -53 21 -93 11 -41 19 -94 17 -120 l-3
-47 -56 -16 c-79 -24 -169 -74 -227 -129 -28 -25 -62 -47 -74 -48 -22 -2 -58
-35 -58 -53 0 -5 12 -22 26 -39 28 -33 28 -36 7 -161 -4 -19 -6 -106 -6 -192
1 -142 -1 -158 -18 -174 -21 -19 -24 -49 -9 -88 7 -18 5 -37 -7 -69 -19 -53
-12 -91 22 -113 20 -13 28 -14 39 -5 11 10 16 8 21 -9 4 -12 12 -19 18 -17 7
2 37 12 68 20 30 9 63 25 73 35 16 19 16 20 -4 25 -13 3 -18 10 -14 21 4 11
11 13 31 5 42 -16 81 -11 93 12 15 26 -9 56 -54 67 -24 7 -32 15 -39 45 -9 35
-37 72 -70 92 -22 13 -32 95 -32 280 0 126 3 145 24 187 27 56 88 112 149 139
77 34 88 34 100 2 22 -54 22 -95 1 -181 -34 -141 -24 -250 24 -279 8 -4 17
-26 20 -48 3 -22 35 -98 71 -170 71 -142 73 -147 81 -218 3 -27 15 -70 25 -97
104 -264 103 -626 -2 -917 -24 -66 -34 -83 -50 -83 -22 0 -20 -11 12 -83 15
-33 24 -41 47 -43 15 -1 80 -5 143 -8 167 -8 317 -17 378 -21 l52 -3 1 41 c1
23 1 53 1 65 -3 62 -113 186 -200 224 -56 25 -132 30 -186 11 -21 -7 -40 -13
-41 -13 -1 0 3 28 10 63 11 53 23 127 25 148 0 4 11 10 25 13 52 13 55 85 5
101 -17 5 -20 16 -21 68 -1 34 -2 73 -3 87 -11 109 -19 170 -25 200 l-8 35 58
-29 c79 -39 169 -46 232 -18 l46 21 85 -90 c165 -176 268 -367 331 -619 16
-60 16 -65 -1 -77 -10 -7 -16 -14 -13 -16 2 -2 27 -18 56 -36 l52 -33 256 152
c140 84 255 156 255 160 0 4 -11 28 -25 52 -20 37 -36 50 -83 71 -156 70 -316
47 -391 -55 -27 -36 -31 -39 -37 -22 -4 10 -24 57 -46 103 l-38 83 20 25 c16
20 17 29 8 49 -11 25 -42 38 -71 32 -10 -2 -36 26 -72 76 -56 78 -95 124 -168
198 -26 27 -35 43 -29 51 26 32 45 156 45 287 0 153 -13 244 -55 380 -22 70
-31 123 -35 203 -5 100 -4 107 13 108 11 1 24 0 29 -1 6 -1 48 -3 95 -5 47 -2
100 -9 117 -16 28 -12 34 -11 45 3 12 15 23 11 118 -33 113 -52 131 -57 149
-35 9 11 4 20 -26 44 l-38 31 33 -9 c61 -17 32 7 -63 49 -88 40 -110 60 -85
76 6 4 8 11 5 16 -9 14 -114 61 -141 63 -13 0 -24 4 -24 8 0 11 -34 15 -65 6
-24 -7 -44 -2 -100 24 l-71 33 3 113 c2 95 6 118 22 138 45 57 69 213 49 312
-10 50 -42 106 -67 117 -15 7 -21 17 -19 35 4 34 57 41 87 11 12 -12 21 -16
21 -10 0 19 -33 38 -66 39 l-31 0 -5 84 c-7 128 -64 228 -161 277 -48 25 -129
31 -185 14z m403 -1262 c29 -14 33 -19 19 -23 -30 -11 -64 1 -64 21 0 23 1 23
45 2z"/>
</g>
</svg>
